<svg width="290" height="290" viewBox="0 0 290 290" fill="none" xmlns="http://www.w3.org/2000/svg">
<path d="M125.525 20.3869C105.485 23.3841 85.3399 30.4059 69.8262 43.9854C57.5424 54.7221 46.524 65.8624 37.7349 79.7272C29.1455 93.1601 22.3513 108.25 19.8792 124.067C17.7577 137.424 18.3016 151.167 20.3799 164.469C24.292 189.51 38.2095 214.456 56.0498 232.444C67.8646 244.359 81.9067 253.855 97.3121 260.533C118.228 269.557 141.91 273.205 164.473 269.68C233.268 258.932 280.366 194.392 269.618 125.597C268.171 116.337 265.691 107.306 262.264 98.6231C249.453 66.2224 218.685 36.8943 185.596 25.6311C167.939 19.5053 148.927 17.5324 130.36 19.6982C128.785 19.8775 127.155 20.1322 125.525 20.3869ZM163.988 266.148C125.26 272.666 83.2027 256.592 56.5369 228.293C27.8844 197.966 11.4751 145.954 28.4728 105.957C35.809 88.779 45.5865 72.6889 58.8077 59.4009C83.6485 34.5446 117.796 19.6573 153.053 22.5657C177.013 24.5672 200.086 33.7212 219.298 48.0878C225.577 52.785 229.933 57.5819 235.115 63.3856C251.124 81.1918 260.334 103.801 265.426 126.987C270.123 148.497 266.348 173.937 257.473 194.094C255.197 199.193 252.564 204.147 249.554 208.825C243.635 217.967 236.584 226.283 228.577 233.612C212.86 248.025 193.415 258.678 172.895 264.155C169.956 265.015 166.987 265.68 163.988 266.148Z" fill="#E1DDDC"/>
<path d="M161.23 41.1109C144.557 38.3724 126.777 38.8678 111.015 45.6905C98.5484 51.0908 86.9882 57.1004 76.4654 65.8772C66.2542 74.3687 57.0376 84.6189 51.0284 96.5725C45.9118 106.662 42.9205 117.684 41.1886 128.769C37.9285 149.636 42.6361 172.95 52.2567 191.754C58.5903 204.234 67.3407 215.354 77.8618 224.546C92.214 237.008 109.992 245.932 128.837 248.876C186.221 257.841 239.978 218.611 248.943 161.228C250.146 153.533 250.5 145.706 249.976 137.942C248.021 108.979 231.038 77.869 207.63 60.5178C195.122 51.2156 180.55 44.8641 165.318 41.8831C163.893 41.5938 162.599 41.3248 161.23 41.1109ZM129.22 245.996C96.8153 241.335 67.5506 217.858 53.5384 188.681C38.5379 157.28 38.7593 111.823 62.4071 84.4557C72.5957 72.6875 84.4167 62.4434 98.308 55.1949C124.397 41.7024 155.28 38.578 182.565 49.9218C201.068 57.6222 217.055 70.7411 228.603 87.041C232.379 92.3738 234.621 97.2664 237.307 103.164C245.489 121.342 247.062 141.628 245.19 161.309C243.466 179.61 233.983 198.837 221.817 212.567C218.738 216.028 215.354 219.306 211.749 222.284C204.776 228.008 197.002 232.872 188.794 236.667C172.604 244.09 154.476 247.671 136.855 246.722C134.272 246.585 131.773 246.329 129.22 245.996Z" fill="#E1DDDC"/>
<path d="M132.153 62.9881C117.768 65.8367 103.944 72.2717 92.4181 81.0196C69.9678 98.0876 58.0952 130.27 62.4047 157.853C66.6632 185.11 88.4423 211.634 113.867 222.158C126.585 227.452 140.605 229.537 154.315 227.929C155.499 227.811 156.607 227.638 157.781 227.455C179.104 224.123 198.412 210.886 211.324 193.906C236.597 160.699 232.349 112.13 201.583 83.6705C187.684 70.812 167.791 61.495 148.598 61.3541C143.118 61.3418 137.6 61.9367 132.153 62.9881ZM157.398 224.575C149.964 225.737 142.272 225.669 134.43 224.222C100.043 217.905 72.4707 192.353 66.9693 157.14C63.8722 137.317 68.431 116.898 79.6023 100.323C90.0135 84.8689 106.491 73.6106 124.222 68.2352C138.382 63.9521 153.916 63.3288 168.187 67.4453C198.545 76.1959 218.156 102.524 222.883 132.781C227.223 160.56 216.202 187.933 195.702 206.366C185.091 215.84 171.483 222.375 157.398 224.575Z" fill="#E1DDDC"/>
<path d="M154.125 86.902C143.13 85.4513 130.61 87.7705 120.488 92.268C104.977 99.1967 92.4142 113.333 88.0353 129.816C84.0212 144.821 87.4653 161.257 95.4229 174.458C101.106 183.829 109.101 192.092 118.768 197.343C139.871 208.924 170.544 203.295 187.102 186.243C194.662 178.472 200.064 168.695 202.452 158.113C202.721 156.819 202.99 155.525 203.204 154.156C206.699 131.789 194.329 104.072 173.951 93.4063C167.546 89.934 160.873 87.7557 154.125 86.902ZM136.442 199.236C129.444 198.277 121.175 193.912 115.298 190.054C108.449 185.578 102.366 179.617 98.1922 172.552C93.279 164.236 90.913 154.581 91.0107 144.977C91.0513 134.028 93.5433 121.926 99.9519 112.974C113.967 93.3869 136.423 88.612 159.136 92.0269C173.166 94.1521 184.543 104.28 191.35 116.298C197.736 127.583 202.216 139.105 199.787 152.085C197.49 164.218 190.862 175.006 182.957 184.125C176.039 192.063 163.915 196.982 153.634 198.649C148.173 199.399 142.135 199.992 136.442 199.236Z" fill="#E1DDDC"/>
<path d="M140.111 113.733C134.568 114.599 129.205 117.04 124.872 120.522C101.002 139.616 120.026 180.999 149.891 176.333C165.28 173.929 175.123 162.104 176.006 146.802C177.129 127.054 159.543 110.697 140.111 113.733ZM149.164 172.105C143.165 173.042 137.076 172.123 132.055 168.632C128.315 166.077 125.346 162.466 122.889 158.708C117.259 150.035 115.839 141.373 120.99 132.017C128.265 118.723 142.22 114.405 156.071 119.255C165.261 122.495 170.445 131.305 171.942 140.89C174.275 155.823 164.096 169.772 149.164 172.105Z" fill="#E1DDDC"/>
</svg>
